<mxfile host="app.diagrams.net" agent="Mozilla/5.0 (Macintosh; Intel Mac OS X 10_15_7) AppleWebKit/537.36 (KHTML, like Gecko) Chrome/139.0.0.0 Safari/537.36" version="28.1.2">
  <diagram name="Страница — 1" id="HyQT6wuC4P60vOfhYMD7">
    <mxGraphModel dx="673" dy="1603" grid="1" gridSize="10" guides="1" tooltips="1" connect="1" arrows="1" fold="1" page="1" pageScale="1" pageWidth="827" pageHeight="1169" math="0" shadow="0">
      <root>
        <mxCell id="0" />
        <mxCell id="1" parent="0" />
        <mxCell id="MRMnX7nbwJejvS1r9wIW-14" style="edgeStyle=orthogonalEdgeStyle;rounded=0;orthogonalLoop=1;jettySize=auto;html=1;exitX=0.5;exitY=0;exitDx=0;exitDy=0;entryX=0;entryY=0.5;entryDx=0;entryDy=0;" edge="1" parent="1" source="MRMnX7nbwJejvS1r9wIW-9" target="MRMnX7nbwJejvS1r9wIW-12">
          <mxGeometry relative="1" as="geometry" />
        </mxCell>
        <mxCell id="MRMnX7nbwJejvS1r9wIW-9" value="MUX" style="shape=trapezoid;perimeter=trapezoidPerimeter;whiteSpace=wrap;html=1;fixedSize=1;direction=south;" vertex="1" parent="1">
          <mxGeometry x="160" y="160" width="30" height="60" as="geometry" />
        </mxCell>
        <mxCell id="MRMnX7nbwJejvS1r9wIW-11" style="edgeStyle=orthogonalEdgeStyle;rounded=0;orthogonalLoop=1;jettySize=auto;html=1;exitX=0.5;exitY=1;exitDx=0;exitDy=0;" edge="1" parent="1" source="MRMnX7nbwJejvS1r9wIW-1">
          <mxGeometry relative="1" as="geometry">
            <mxPoint x="160" y="190" as="targetPoint" />
            <Array as="points">
              <mxPoint x="80" y="190" />
              <mxPoint x="160" y="190" />
            </Array>
          </mxGeometry>
        </mxCell>
        <mxCell id="MRMnX7nbwJejvS1r9wIW-28" style="edgeStyle=orthogonalEdgeStyle;rounded=0;orthogonalLoop=1;jettySize=auto;html=1;entryX=1;entryY=0.5;entryDx=0;entryDy=0;" edge="1" parent="1" source="MRMnX7nbwJejvS1r9wIW-12" target="MRMnX7nbwJejvS1r9wIW-27">
          <mxGeometry relative="1" as="geometry">
            <Array as="points">
              <mxPoint x="250" y="155" />
              <mxPoint x="250" y="155" />
              <mxPoint x="250" y="133" />
            </Array>
          </mxGeometry>
        </mxCell>
        <mxCell id="MRMnX7nbwJejvS1r9wIW-12" value="PC" style="rounded=0;whiteSpace=wrap;html=1;fillColor=none;" vertex="1" parent="1">
          <mxGeometry x="230" y="175" width="39" height="30" as="geometry" />
        </mxCell>
        <mxCell id="MRMnX7nbwJejvS1r9wIW-18" style="edgeStyle=orthogonalEdgeStyle;rounded=0;orthogonalLoop=1;jettySize=auto;html=1;entryX=0;entryY=0.5;entryDx=0;entryDy=0;exitX=0.5;exitY=1;exitDx=0;exitDy=0;" edge="1" parent="1" source="MRMnX7nbwJejvS1r9wIW-15" target="MRMnX7nbwJejvS1r9wIW-17">
          <mxGeometry relative="1" as="geometry">
            <Array as="points">
              <mxPoint x="380" y="295" />
            </Array>
          </mxGeometry>
        </mxCell>
        <mxCell id="MRMnX7nbwJejvS1r9wIW-15" value="Instruction Memory" style="whiteSpace=wrap;html=1;aspect=fixed;fillColor=none;" vertex="1" parent="1">
          <mxGeometry x="320" y="120" width="120" height="120" as="geometry" />
        </mxCell>
        <mxCell id="MRMnX7nbwJejvS1r9wIW-16" style="edgeStyle=orthogonalEdgeStyle;rounded=0;orthogonalLoop=1;jettySize=auto;html=1;exitX=1;exitY=0.5;exitDx=0;exitDy=0;entryX=-0.003;entryY=0.581;entryDx=0;entryDy=0;entryPerimeter=0;" edge="1" parent="1" source="MRMnX7nbwJejvS1r9wIW-12" target="MRMnX7nbwJejvS1r9wIW-15">
          <mxGeometry relative="1" as="geometry" />
        </mxCell>
        <mxCell id="MRMnX7nbwJejvS1r9wIW-25" style="edgeStyle=orthogonalEdgeStyle;rounded=0;orthogonalLoop=1;jettySize=auto;html=1;exitX=1;exitY=0.5;exitDx=0;exitDy=0;entryX=0;entryY=0.5;entryDx=0;entryDy=0;" edge="1" parent="1" source="MRMnX7nbwJejvS1r9wIW-17" target="MRMnX7nbwJejvS1r9wIW-24">
          <mxGeometry relative="1" as="geometry" />
        </mxCell>
        <mxCell id="MRMnX7nbwJejvS1r9wIW-17" value="IR" style="rounded=0;whiteSpace=wrap;html=1;fillColor=none;" vertex="1" parent="1">
          <mxGeometry x="520" y="280" width="40" height="30" as="geometry" />
        </mxCell>
        <mxCell id="MRMnX7nbwJejvS1r9wIW-20" style="edgeStyle=orthogonalEdgeStyle;rounded=0;orthogonalLoop=1;jettySize=auto;html=1;entryX=0.5;entryY=1;entryDx=0;entryDy=0;dashed=1;" edge="1" parent="1" source="MRMnX7nbwJejvS1r9wIW-19" target="MRMnX7nbwJejvS1r9wIW-17">
          <mxGeometry relative="1" as="geometry" />
        </mxCell>
        <mxCell id="MRMnX7nbwJejvS1r9wIW-19" value="latch_ir" style="text;html=1;align=center;verticalAlign=middle;resizable=0;points=[];autosize=1;strokeColor=none;fillColor=none;" vertex="1" parent="1">
          <mxGeometry x="510" y="330" width="60" height="30" as="geometry" />
        </mxCell>
        <mxCell id="MRMnX7nbwJejvS1r9wIW-23" value="" style="group" vertex="1" connectable="0" parent="1">
          <mxGeometry x="30" y="37" width="210" height="123" as="geometry" />
        </mxCell>
        <mxCell id="MRMnX7nbwJejvS1r9wIW-1" value="ReturnStack" style="rounded=0;whiteSpace=wrap;html=1;fillColor=none;" vertex="1" parent="MRMnX7nbwJejvS1r9wIW-23">
          <mxGeometry width="80" height="123" as="geometry" />
        </mxCell>
        <mxCell id="MRMnX7nbwJejvS1r9wIW-2" value="ret_pop" style="text;html=1;align=center;verticalAlign=middle;resizable=0;points=[];autosize=1;strokeColor=none;fillColor=none;" vertex="1" parent="MRMnX7nbwJejvS1r9wIW-23">
          <mxGeometry x="110" width="60" height="30" as="geometry" />
        </mxCell>
        <mxCell id="MRMnX7nbwJejvS1r9wIW-4" style="edgeStyle=orthogonalEdgeStyle;rounded=0;orthogonalLoop=1;jettySize=auto;html=1;dashed=1;entryX=1.021;entryY=0.136;entryDx=0;entryDy=0;entryPerimeter=0;" edge="1" parent="MRMnX7nbwJejvS1r9wIW-23" source="MRMnX7nbwJejvS1r9wIW-2" target="MRMnX7nbwJejvS1r9wIW-1">
          <mxGeometry relative="1" as="geometry">
            <mxPoint x="110" y="15" as="targetPoint" />
            <Array as="points">
              <mxPoint x="130" y="17" />
              <mxPoint x="130" y="17" />
            </Array>
          </mxGeometry>
        </mxCell>
        <mxCell id="MRMnX7nbwJejvS1r9wIW-8" style="edgeStyle=orthogonalEdgeStyle;rounded=0;orthogonalLoop=1;jettySize=auto;html=1;dashed=1;" edge="1" parent="MRMnX7nbwJejvS1r9wIW-23" source="MRMnX7nbwJejvS1r9wIW-5" target="MRMnX7nbwJejvS1r9wIW-1">
          <mxGeometry relative="1" as="geometry">
            <Array as="points">
              <mxPoint x="130" y="43" />
              <mxPoint x="130" y="43" />
            </Array>
          </mxGeometry>
        </mxCell>
        <mxCell id="MRMnX7nbwJejvS1r9wIW-5" value="ret_push" style="text;html=1;align=center;verticalAlign=middle;resizable=0;points=[];autosize=1;strokeColor=none;fillColor=none;" vertex="1" parent="MRMnX7nbwJejvS1r9wIW-23">
          <mxGeometry x="110" y="30" width="70" height="30" as="geometry" />
        </mxCell>
        <mxCell id="MRMnX7nbwJejvS1r9wIW-27" value="+1" style="ellipse;whiteSpace=wrap;html=1;aspect=fixed;" vertex="1" parent="MRMnX7nbwJejvS1r9wIW-23">
          <mxGeometry x="153" y="83" width="27" height="27" as="geometry" />
        </mxCell>
        <mxCell id="MRMnX7nbwJejvS1r9wIW-26" style="edgeStyle=orthogonalEdgeStyle;rounded=0;orthogonalLoop=1;jettySize=auto;html=1;exitX=0.5;exitY=1;exitDx=0;exitDy=0;entryX=0.913;entryY=1.03;entryDx=0;entryDy=0;entryPerimeter=0;" edge="1" parent="1" source="MRMnX7nbwJejvS1r9wIW-24" target="MRMnX7nbwJejvS1r9wIW-9">
          <mxGeometry relative="1" as="geometry">
            <Array as="points">
              <mxPoint x="700" y="380" />
              <mxPoint x="140" y="380" />
              <mxPoint x="140" y="215" />
            </Array>
          </mxGeometry>
        </mxCell>
        <mxCell id="MRMnX7nbwJejvS1r9wIW-41" value="jump/call" style="edgeLabel;html=1;align=center;verticalAlign=middle;resizable=0;points=[];" vertex="1" connectable="0" parent="MRMnX7nbwJejvS1r9wIW-26">
          <mxGeometry x="-0.1232" y="-1" relative="1" as="geometry">
            <mxPoint as="offset" />
          </mxGeometry>
        </mxCell>
        <mxCell id="MRMnX7nbwJejvS1r9wIW-45" style="edgeStyle=orthogonalEdgeStyle;rounded=0;orthogonalLoop=1;jettySize=auto;html=1;exitX=0.25;exitY=0;exitDx=0;exitDy=0;dashed=1;" edge="1" parent="1" source="MRMnX7nbwJejvS1r9wIW-24" target="MRMnX7nbwJejvS1r9wIW-33">
          <mxGeometry relative="1" as="geometry">
            <Array as="points">
              <mxPoint x="650" y="276" />
              <mxPoint x="650" y="250" />
              <mxPoint x="500" y="250" />
            </Array>
          </mxGeometry>
        </mxCell>
        <mxCell id="MRMnX7nbwJejvS1r9wIW-46" value="signals" style="edgeLabel;html=1;align=center;verticalAlign=middle;resizable=0;points=[];" vertex="1" connectable="0" parent="MRMnX7nbwJejvS1r9wIW-45">
          <mxGeometry x="0.5618" relative="1" as="geometry">
            <mxPoint y="46" as="offset" />
          </mxGeometry>
        </mxCell>
        <mxCell id="MRMnX7nbwJejvS1r9wIW-24" value="Instruction Decoder" style="rounded=0;whiteSpace=wrap;html=1;fillColor=none;" vertex="1" parent="1">
          <mxGeometry x="640" y="276.25" width="120" height="37.5" as="geometry" />
        </mxCell>
        <mxCell id="MRMnX7nbwJejvS1r9wIW-30" style="edgeStyle=orthogonalEdgeStyle;rounded=0;orthogonalLoop=1;jettySize=auto;html=1;exitX=0;exitY=0.5;exitDx=0;exitDy=0;entryX=0.25;entryY=1;entryDx=0;entryDy=0;" edge="1" parent="1" source="MRMnX7nbwJejvS1r9wIW-27" target="MRMnX7nbwJejvS1r9wIW-9">
          <mxGeometry relative="1" as="geometry" />
        </mxCell>
        <mxCell id="MRMnX7nbwJejvS1r9wIW-32" style="edgeStyle=orthogonalEdgeStyle;rounded=0;orthogonalLoop=1;jettySize=auto;html=1;entryX=0.5;entryY=1;entryDx=0;entryDy=0;dashed=1;" edge="1" parent="1" source="MRMnX7nbwJejvS1r9wIW-31" target="MRMnX7nbwJejvS1r9wIW-12">
          <mxGeometry relative="1" as="geometry" />
        </mxCell>
        <mxCell id="MRMnX7nbwJejvS1r9wIW-31" value="latch_pc" style="text;html=1;align=center;verticalAlign=middle;resizable=0;points=[];autosize=1;strokeColor=none;fillColor=none;" vertex="1" parent="1">
          <mxGeometry x="214.5" y="230" width="70" height="30" as="geometry" />
        </mxCell>
        <mxCell id="MRMnX7nbwJejvS1r9wIW-44" style="edgeStyle=orthogonalEdgeStyle;rounded=0;orthogonalLoop=1;jettySize=auto;html=1;exitX=0.5;exitY=1;exitDx=0;exitDy=0;" edge="1" parent="1" source="MRMnX7nbwJejvS1r9wIW-33" target="MRMnX7nbwJejvS1r9wIW-24">
          <mxGeometry relative="1" as="geometry">
            <Array as="points">
              <mxPoint x="540" y="40" />
              <mxPoint x="540" y="230" />
              <mxPoint x="660" y="230" />
            </Array>
          </mxGeometry>
        </mxCell>
        <mxCell id="MRMnX7nbwJejvS1r9wIW-48" value="flags" style="edgeLabel;html=1;align=center;verticalAlign=middle;resizable=0;points=[];" vertex="1" connectable="0" parent="MRMnX7nbwJejvS1r9wIW-44">
          <mxGeometry x="-0.3461" y="1" relative="1" as="geometry">
            <mxPoint x="-1" y="47" as="offset" />
          </mxGeometry>
        </mxCell>
        <mxCell id="MRMnX7nbwJejvS1r9wIW-33" value="DataPath" style="rounded=0;whiteSpace=wrap;html=1;fillColor=none;" vertex="1" parent="1">
          <mxGeometry x="440" y="-40" width="120" height="80" as="geometry" />
        </mxCell>
        <mxCell id="MRMnX7nbwJejvS1r9wIW-34" value="IO Devices" style="rounded=0;whiteSpace=wrap;html=1;fillColor=none;" vertex="1" parent="1">
          <mxGeometry x="680" y="120" width="120" height="80" as="geometry" />
        </mxCell>
        <mxCell id="MRMnX7nbwJejvS1r9wIW-39" style="edgeStyle=orthogonalEdgeStyle;rounded=0;orthogonalLoop=1;jettySize=auto;html=1;exitX=1;exitY=0.5;exitDx=0;exitDy=0;entryX=0.848;entryY=-0.01;entryDx=0;entryDy=0;entryPerimeter=0;startArrow=openThin;startFill=0;" edge="1" parent="1" source="MRMnX7nbwJejvS1r9wIW-33" target="MRMnX7nbwJejvS1r9wIW-34">
          <mxGeometry relative="1" as="geometry" />
        </mxCell>
        <mxCell id="MRMnX7nbwJejvS1r9wIW-40" value="data" style="edgeLabel;html=1;align=center;verticalAlign=middle;resizable=0;points=[];" vertex="1" connectable="0" parent="MRMnX7nbwJejvS1r9wIW-39">
          <mxGeometry x="-0.24" y="-1" relative="1" as="geometry">
            <mxPoint as="offset" />
          </mxGeometry>
        </mxCell>
        <mxCell id="MRMnX7nbwJejvS1r9wIW-42" style="edgeStyle=orthogonalEdgeStyle;rounded=0;orthogonalLoop=1;jettySize=auto;html=1;exitX=0.75;exitY=1;exitDx=0;exitDy=0;startArrow=classic;startFill=1;shape=wire;dashed=1;endArrow=none;endFill=0;" edge="1" parent="1">
          <mxGeometry relative="1" as="geometry">
            <mxPoint x="160" y="203.99999999999977" as="sourcePoint" />
            <mxPoint x="783" y="199" as="targetPoint" />
            <Array as="points">
              <mxPoint x="110" y="204" />
              <mxPoint x="110" y="429" />
              <mxPoint x="783" y="429" />
            </Array>
          </mxGeometry>
        </mxCell>
        <mxCell id="MRMnX7nbwJejvS1r9wIW-43" value="interrupt" style="edgeLabel;html=1;align=center;verticalAlign=middle;resizable=0;points=[];" vertex="1" connectable="0" parent="MRMnX7nbwJejvS1r9wIW-42">
          <mxGeometry x="0.0863" y="-2" relative="1" as="geometry">
            <mxPoint as="offset" />
          </mxGeometry>
        </mxCell>
        <mxCell id="MRMnX7nbwJejvS1r9wIW-51" value="" style="group" vertex="1" connectable="0" parent="1">
          <mxGeometry x="467" y="40" width="70" height="240.00000000000023" as="geometry" />
        </mxCell>
        <mxCell id="MRMnX7nbwJejvS1r9wIW-47" style="edgeStyle=orthogonalEdgeStyle;rounded=0;orthogonalLoop=1;jettySize=auto;html=1;entryX=0.25;entryY=1;entryDx=0;entryDy=0;" edge="1" parent="MRMnX7nbwJejvS1r9wIW-51">
          <mxGeometry relative="1" as="geometry">
            <mxPoint x="70" y="240.00000000000023" as="sourcePoint" />
            <mxPoint as="targetPoint" />
            <Array as="points">
              <mxPoint x="70" y="220" />
              <mxPoint y="220" />
            </Array>
          </mxGeometry>
        </mxCell>
        <mxCell id="MRMnX7nbwJejvS1r9wIW-49" value="lit/addr" style="edgeLabel;html=1;align=center;verticalAlign=middle;resizable=0;points=[];" vertex="1" connectable="0" parent="MRMnX7nbwJejvS1r9wIW-47">
          <mxGeometry x="0.1971" y="2" relative="1" as="geometry">
            <mxPoint x="5" y="25" as="offset" />
          </mxGeometry>
        </mxCell>
        <mxCell id="MRMnX7nbwJejvS1r9wIW-53" style="edgeStyle=orthogonalEdgeStyle;rounded=0;orthogonalLoop=1;jettySize=auto;html=1;entryX=0.834;entryY=0.027;entryDx=0;entryDy=0;entryPerimeter=0;" edge="1" parent="1" source="MRMnX7nbwJejvS1r9wIW-34" target="MRMnX7nbwJejvS1r9wIW-24">
          <mxGeometry relative="1" as="geometry" />
        </mxCell>
        <mxCell id="MRMnX7nbwJejvS1r9wIW-54" value="intreq" style="edgeLabel;html=1;align=center;verticalAlign=middle;resizable=0;points=[];" vertex="1" connectable="0" parent="MRMnX7nbwJejvS1r9wIW-53">
          <mxGeometry x="0.02" y="2" relative="1" as="geometry">
            <mxPoint x="-2" y="-10" as="offset" />
          </mxGeometry>
        </mxCell>
        <mxCell id="MRMnX7nbwJejvS1r9wIW-55" value="" style="edgeStyle=none;orthogonalLoop=1;jettySize=auto;html=1;rounded=0;entryX=0.34;entryY=1.034;entryDx=0;entryDy=0;entryPerimeter=0;exitX=0.674;exitY=-0.056;exitDx=0;exitDy=0;exitPerimeter=0;dashed=1;" edge="1" parent="1" source="MRMnX7nbwJejvS1r9wIW-24" target="MRMnX7nbwJejvS1r9wIW-34">
          <mxGeometry width="100" relative="1" as="geometry">
            <mxPoint x="670" y="240" as="sourcePoint" />
            <mxPoint x="770" y="240" as="targetPoint" />
            <Array as="points" />
          </mxGeometry>
        </mxCell>
        <mxCell id="MRMnX7nbwJejvS1r9wIW-56" value="intack" style="edgeLabel;html=1;align=center;verticalAlign=middle;resizable=0;points=[];" vertex="1" connectable="0" parent="MRMnX7nbwJejvS1r9wIW-55">
          <mxGeometry x="-0.3198" relative="1" as="geometry">
            <mxPoint as="offset" />
          </mxGeometry>
        </mxCell>
        <mxCell id="MRMnX7nbwJejvS1r9wIW-57" value="sel" style="text;html=1;align=center;verticalAlign=middle;resizable=0;points=[];autosize=1;strokeColor=none;fillColor=none;" vertex="1" parent="1">
          <mxGeometry x="150" y="240" width="40" height="30" as="geometry" />
        </mxCell>
        <mxCell id="MRMnX7nbwJejvS1r9wIW-58" style="edgeStyle=orthogonalEdgeStyle;rounded=0;orthogonalLoop=1;jettySize=auto;html=1;entryX=0.875;entryY=0.693;entryDx=0;entryDy=0;entryPerimeter=0;dashed=1;" edge="1" parent="1" source="MRMnX7nbwJejvS1r9wIW-57" target="MRMnX7nbwJejvS1r9wIW-9">
          <mxGeometry relative="1" as="geometry" />
        </mxCell>
        <mxCell id="MRMnX7nbwJejvS1r9wIW-60" style="edgeStyle=orthogonalEdgeStyle;rounded=0;orthogonalLoop=1;jettySize=auto;html=1;exitX=0;exitY=0.5;exitDx=0;exitDy=0;startArrow=classic;startFill=1;endArrow=none;endFill=0;entryX=0.358;entryY=-0.049;entryDx=0;entryDy=0;entryPerimeter=0;" edge="1" parent="1" source="MRMnX7nbwJejvS1r9wIW-34">
          <mxGeometry relative="1" as="geometry">
            <mxPoint x="677" y="160" as="sourcePoint" />
            <mxPoint x="679.9599999999998" y="274.4124999999999" as="targetPoint" />
            <Array as="points">
              <mxPoint x="667" y="160" />
              <mxPoint x="667" y="238" />
              <mxPoint x="681" y="238" />
              <mxPoint x="681" y="274" />
            </Array>
          </mxGeometry>
        </mxCell>
        <mxCell id="MRMnX7nbwJejvS1r9wIW-61" value="port" style="edgeLabel;html=1;align=center;verticalAlign=middle;resizable=0;points=[];" vertex="1" connectable="0" parent="MRMnX7nbwJejvS1r9wIW-60">
          <mxGeometry x="-0.112" y="-1" relative="1" as="geometry">
            <mxPoint as="offset" />
          </mxGeometry>
        </mxCell>
      </root>
    </mxGraphModel>
  </diagram>
</mxfile>
